<svg width="512" height="512" viewBox="0 0 512 512" fill="none" xmlns="http://www.w3.org/2000/svg">
<path d="M512 256C512 397.387 397.387 512 256 512C114.613 512 0 397.387 0 256C0 114.613 114.613 0 256 0C397.387 0 512 114.613 512 256Z" fill="#222831"/>
<path d="M310.635 410.202L174.626 246.28L181.102 238.475L317.111 402.397L310.635 410.202Z" fill="#646464" fill-opacity="0.5" stroke="#F2A365" stroke-width="37"/>
<path d="M330.635 430.202L194.626 266.28L201.102 258.475L337.111 422.397L330.635 430.202Z" fill="#646464" fill-opacity="0.5" stroke="#ECECEC" stroke-width="37"/>
<path d="M174.626 246.397L310.635 82.4748L317.111 90.2796L181.102 254.202L174.626 246.397Z" fill="#646464" fill-opacity="0.5" stroke="#F2A365" stroke-width="37"/>
<path d="M194.626 266.397L330.635 102.475L337.111 110.28L201.102 274.202L194.626 266.397Z" fill="#646464" fill-opacity="0.5" stroke="#ECECEC" stroke-width="37"/>
<path d="M169.5 352.5V139.5H175.07V352.5H169.5Z" fill="#646464" fill-opacity="0.5" stroke="#F2A365" stroke-width="37"/>
<path d="M179.5 372.5V159.5H185.07V372.5H179.5Z" fill="#646464" fill-opacity="0.5" stroke="#ECECEC" stroke-width="37"/>
</svg>
