<svg width="66" height="67" viewBox="0 0 66 67" fill="none" xmlns="http://www.w3.org/2000/svg">
<g filter="url(#filter0_d)">
<path d="M25.791 46.836C26.502 46.53 27 45.823 27 45V39.6C27 39.403 27.016 39.198 27.041 38.99C27.027 38.994 27.014 38.997 27 39C27 39 24 39 23.4 39C21.9 39 20.6 38.4 20 37.2C19.3 35.9 19 33.7 17.2 32.5C16.9 32.3 17.1 32 17.7 32C18.3 32.1 19.6 32.9 20.4 34C21.3 35.1 22.2 36 23.8 36C26.287 36 27.62 35.875 28.422 35.445C29.356 34.056 30.649 33 32 33V32.975C26.332 32.793 22.711 30.909 21.025 28C17.36 28.042 14.169 28.405 12.348 28.707C12.29 28.38 12.24 28.051 12.197 27.72C13.994 27.424 17.04 27.073 20.542 27.006C20.43 26.73 20.333 26.447 20.251 26.157C16.74 25.979 13.71 26.118 12.064 26.254C12.044 25.922 12.017 25.591 12.013 25.255C13.662 25.12 16.61 24.985 20.031 25.144C19.952 24.644 19.901 24.133 19.901 23.601C19.901 21.901 20.501 20.101 21.601 18.601C21.101 16.901 20.401 13.301 21.801 12.001C24.501 12.001 26.401 13.301 27.301 14.101C29 13.4 30.9 13 33 13C35.1 13 37 13.4 38.6 14.1C39.5 13.3 41.4 12 44.1 12C45.6 13.4 44.8 17 44.3 18.6C45.4 20.1 46 21.8 45.9 23.6C45.9 24.084 45.855 24.551 45.79 25.009C49.289 24.837 52.317 24.975 53.994 25.111C53.992 25.448 53.961 25.777 53.943 26.11C52.272 25.972 49.168 25.83 45.584 26.021C45.495 26.357 45.387 26.684 45.259 27.001C48.805 27.047 51.924 27.39 53.807 27.69C53.764 28.022 53.714 28.351 53.656 28.677C51.744 28.371 48.485 28.013 44.777 27.995C43.112 30.873 39.557 32.75 34 32.969V33C36.6 33 39 36.9 39 39.6V45C39 45.823 39.498 46.53 40.209 46.836C49.37 43.804 56 35.164 56 25C56 12.318 45.683 2 33 2C20.317 2 10 12.318 10 25C10 35.164 16.63 43.804 25.791 46.836Z" fill="#222831"/>
</g>
<defs>
<filter id="filter0_d" x="-2" y="0" width="70" height="70" filterUnits="userSpaceOnUse" color-interpolation-filters="sRGB">
<feFlood flood-opacity="0" result="BackgroundImageFix"/>
<feColorMatrix in="SourceAlpha" type="matrix" values="0 0 0 0 0 0 0 0 0 0 0 0 0 0 0 0 0 0 127 0"/>
<feOffset dy="10"/>
<feGaussianBlur stdDeviation="5"/>
<feColorMatrix type="matrix" values="0 0 0 0 0 0 0 0 0 0 0 0 0 0 0 0 0 0 0.25 0"/>
<feBlend mode="normal" in2="BackgroundImageFix" result="effect1_dropShadow"/>
<feBlend mode="normal" in="SourceGraphic" in2="effect1_dropShadow" result="shape"/>
</filter>
</defs>
</svg>
