<svg width="62" height="66" viewBox="0 0 62 66" fill="none" xmlns="http://www.w3.org/2000/svg">
<g filter="url(#filter0_d)">
<path d="M47 4H15C12.24 4 10 6.24 10 9V41C10 43.76 12.24 46 15 46H47C49.76 46 52 43.76 52 41V9C52 6.24 49.76 4 47 4ZM23 20V39H17V20H23ZM17 14.47C17 13.07 18.2 12 20 12C21.8 12 22.93 13.07 23 14.47C23 15.87 21.88 17 20 17C18.2 17 17 15.87 17 14.47ZM45 39H39C39 39 39 29.74 39 29C39 27 38 25 35.5 24.96H35.42C33 24.96 32 27.02 32 29C32 29.91 32 39 32 39H26V20H32V22.56C32 22.56 33.93 20 37.81 20C41.78 20 45 22.73 45 28.26V39Z" fill="#222831"/>
</g>
<defs>
<filter id="filter0_d" x="-4" y="0" width="70" height="70" filterUnits="userSpaceOnUse" color-interpolation-filters="sRGB">
<feFlood flood-opacity="0" result="BackgroundImageFix"/>
<feColorMatrix in="SourceAlpha" type="matrix" values="0 0 0 0 0 0 0 0 0 0 0 0 0 0 0 0 0 0 127 0"/>
<feOffset dy="10"/>
<feGaussianBlur stdDeviation="5"/>
<feColorMatrix type="matrix" values="0 0 0 0 0 0 0 0 0 0 0 0 0 0 0 0 0 0 0.25 0"/>
<feBlend mode="normal" in2="BackgroundImageFix" result="effect1_dropShadow"/>
<feBlend mode="normal" in="SourceGraphic" in2="effect1_dropShadow" result="shape"/>
</filter>
</defs>
</svg>
