<svg width="62" height="66" viewBox="0 0 62 66" fill="none" xmlns="http://www.w3.org/2000/svg">
<g filter="url(#filter0_d)">
<path d="M20 4C14.4887 4 10 8.48867 10 14V36C10 41.5113 14.4887 46 20 46H42C47.5113 46 52 41.5113 52 36V14C52 8.48867 47.5113 4 42 4H20ZM19 16H43C43.18 16 43.3498 16.0203 43.5098 16.0703L33.6797 25.8906C32.1997 27.3706 29.7905 27.3706 28.3105 25.8906L18.4902 16.0703C18.6502 16.0203 18.82 16 19 16ZM17.0703 17.4902L24.5898 25L17.0703 32.5098C17.0203 32.3498 17 32.18 17 32V18C17 17.82 17.0203 17.6502 17.0703 17.4902ZM44.9297 17.4902C44.9797 17.6502 45 17.82 45 18V32C45 32.18 44.9797 32.3498 44.9297 32.5098L37.4004 25L44.9297 17.4902ZM26 26.4102L26.8906 27.3105C28.0206 28.4405 29.5102 29 30.9902 29C32.4802 29 33.9598 28.4405 35.0898 27.3105L35.9902 26.4102L43.5098 33.9297C43.3498 33.9797 43.18 34 43 34H19C18.82 34 18.6502 33.9797 18.4902 33.9297L26 26.4102Z" fill="#222831"/>
</g>
<defs>
<filter id="filter0_d" x="-4" y="0" width="70" height="70" filterUnits="userSpaceOnUse" color-interpolation-filters="sRGB">
<feFlood flood-opacity="0" result="BackgroundImageFix"/>
<feColorMatrix in="SourceAlpha" type="matrix" values="0 0 0 0 0 0 0 0 0 0 0 0 0 0 0 0 0 0 127 0"/>
<feOffset dy="10"/>
<feGaussianBlur stdDeviation="5"/>
<feColorMatrix type="matrix" values="0 0 0 0 0 0 0 0 0 0 0 0 0 0 0 0 0 0 0.25 0"/>
<feBlend mode="normal" in2="BackgroundImageFix" result="effect1_dropShadow"/>
<feBlend mode="normal" in="SourceGraphic" in2="effect1_dropShadow" result="shape"/>
</filter>
</defs>
</svg>
