<svg width="512" height="512" viewBox="0 0 512 512" fill="none" xmlns="http://www.w3.org/2000/svg">
<path fill-rule="evenodd" clip-rule="evenodd" d="M256 512C397.387 512 512 397.387 512 256C512 114.613 397.387 0 256 0C114.613 0 0 114.613 0 256C0 397.387 114.613 512 256 512ZM197.324 103.5C189.523 103.5 162.869 103.511 141.318 124.063C118.819 145.519 118.5 173.113 118.5 181.566V330.434C118.5 338.884 118.818 366.483 141.32 387.94C162.873 408.492 189.529 408.5 197.324 408.5H314.676C322.471 408.5 349.127 408.492 370.68 387.94C393.182 366.483 393.5 338.884 393.5 330.434V200.5C393.5 184.569 387.417 169.24 376.493 157.644L343.993 123.144C332.183 110.607 315.723 103.5 298.5 103.5H197.324ZM173 278V308H338V278H173ZM173 313V343H338V313H173ZM338 348V378H173V348H338ZM255.5 237.05C278.979 237.05 298.081 253.177 298.081 273H338C338 249.443 324.065 228.597 302.805 215.985C308.669 208.538 312.089 199.616 312.089 190.027C312.089 164.095 287.108 143 256.394 143C225.685 143 200.699 164.095 200.699 190.027C200.699 199.304 203.912 207.954 209.426 215.248C187.466 227.777 173 248.986 173 273H212.919C212.919 253.177 232.021 237.05 255.5 237.05ZM256.394 176.704C265.095 176.704 272.169 182.681 272.169 190.027C272.169 197.369 265.095 203.346 256.394 203.346C247.693 203.346 240.619 197.369 240.619 190.027C240.619 182.681 247.693 176.704 256.394 176.704Z" fill="black"/>
</svg>
