<svg width="70" height="66" viewBox="0 0 70 66" fill="none" xmlns="http://www.w3.org/2000/svg">
<g filter="url(#filter0_d)">
<path d="M60 9.80938C58.1406 10.625 56.1594 11.1656 54.0938 11.4281C56.2188 10.1594 57.8406 8.16562 58.6031 5.7625C56.6219 6.94375 54.4344 7.77813 52.1031 8.24375C50.2219 6.24063 47.5406 5 44.6156 5C38.9406 5 34.3719 9.60625 34.3719 15.2531C34.3719 16.0656 34.4406 16.8469 34.6094 17.5906C26.0875 17.175 18.5469 13.0906 13.4812 6.86875C12.5969 8.40313 12.0781 10.1594 12.0781 12.05C12.0781 15.6 13.9062 18.7469 16.6312 20.5687C14.9844 20.5375 13.3687 20.0594 12 19.3063C12 19.3375 12 19.3781 12 19.4187C12 24.4 15.5531 28.5375 20.2125 29.4906C19.3781 29.7188 18.4688 29.8281 17.525 29.8281C16.8688 29.8281 16.2062 29.7906 15.5844 29.6531C16.9125 33.7125 20.6813 36.6969 25.1625 36.7937C21.675 39.5219 17.2469 41.1656 12.4531 41.1656C11.6125 41.1656 10.8062 41.1281 10 41.025C14.5406 43.9531 19.9219 45.625 25.725 45.625C44.5875 45.625 54.9 30 54.9 16.4562C54.9 16.0031 54.8844 15.5656 54.8625 15.1313C56.8969 13.6875 58.6063 11.8844 60 9.80938Z" fill="#222831"/>
</g>
<defs>
<filter id="filter0_d" x="0" y="0" width="70" height="70" filterUnits="userSpaceOnUse" color-interpolation-filters="sRGB">
<feFlood flood-opacity="0" result="BackgroundImageFix"/>
<feColorMatrix in="SourceAlpha" type="matrix" values="0 0 0 0 0 0 0 0 0 0 0 0 0 0 0 0 0 0 127 0"/>
<feOffset dy="10"/>
<feGaussianBlur stdDeviation="5"/>
<feColorMatrix type="matrix" values="0 0 0 0 0 0 0 0 0 0 0 0 0 0 0 0 0 0 0.25 0"/>
<feBlend mode="normal" in2="BackgroundImageFix" result="effect1_dropShadow"/>
<feBlend mode="normal" in="SourceGraphic" in2="effect1_dropShadow" result="shape"/>
</filter>
</defs>
</svg>
